<svg width="15" height="15" viewBox="0 0 20 20" fill="none" xmlns="http://www.w3.org/2000/svg">
<g clip-path="url(#clip0_396_20)">
<path d="M10.0016 0C7.28515 0 6.94336 0.0113932 5.87728 0.0602214C5.04786 0.0770791 4.22731 0.234476 3.45052 0.525716C2.78288 0.775328 2.17832 1.16874 1.67969 1.67806C1.17082 2.17771 0.776537 2.78191 0.524088 3.44889C0.232735 4.22615 0.0758699 5.04735 0.0602213 5.87728C0.0130208 6.94336 0 7.28353 0 10C0 12.7165 0.0113932 13.055 0.0602213 14.1227C0.0770791 14.9521 0.234475 15.7727 0.525716 16.5495C0.776557 17.2165 1.1698 17.8208 1.67806 18.3203C2.17728 18.8297 2.7816 19.2241 3.44889 19.4759C4.22637 19.7665 5.04743 19.9233 5.87728 19.9398C6.94336 19.9886 7.28353 20 10 20C12.7165 20 13.055 19.9886 14.1227 19.9398C14.9526 19.9233 15.7736 19.7665 16.5511 19.4759C17.2162 19.2179 17.8202 18.8242 18.3246 18.3198C18.8291 17.8153 19.2228 17.2113 19.4808 16.5462C19.7705 15.769 19.9278 14.9487 19.9463 14.1195C19.9935 13.0534 20.0065 12.7132 20.0065 9.99674C20.0065 7.28027 19.9935 6.9401 19.9463 5.87402C19.9278 5.04425 19.7705 4.22343 19.4808 3.44564C19.2296 2.77843 18.8357 2.17408 18.3268 1.6748C17.8285 1.16511 17.2238 0.771642 16.556 0.522461C15.7764 0.23161 14.953 0.0753069 14.1211 0.0602214C13.0534 0.0113932 12.7148 0 9.99837 0H10.0016ZM9.10319 1.80176H10.0016C12.6709 1.80176 12.9866 1.81152 14.0413 1.86035C14.6755 1.86757 15.3037 1.98374 15.8984 2.20378C16.3327 2.36419 16.7254 2.62005 17.0475 2.95247C17.3793 3.2752 17.635 3.66772 17.7962 4.10156C18.0163 4.69634 18.1324 5.32452 18.1396 5.95866C18.1885 7.01172 18.1982 7.3291 18.1982 9.99837C18.1982 12.6676 18.1885 12.9834 18.1396 14.0381C18.1326 14.6717 18.0164 15.2994 17.7962 15.8936C17.6296 16.3245 17.3747 16.7158 17.0479 17.0424C16.7211 17.3689 16.3295 17.6235 15.8984 17.7897C15.3041 18.0114 14.6757 18.1282 14.0413 18.1348C12.9883 18.1836 12.6709 18.1934 10.0016 18.1934C7.33235 18.1934 7.01497 18.1836 5.96028 18.1348C5.32605 18.127 4.69787 18.0103 4.10319 17.7897C3.66852 17.63 3.27527 17.3747 2.95247 17.0426C2.62064 16.7203 2.36534 16.3276 2.2054 15.8936C1.98481 15.2989 1.86809 14.6707 1.86035 14.0365C1.81315 12.9818 1.80338 12.666 1.80338 9.99512C1.80338 7.32422 1.81315 7.01009 1.86035 5.9554C1.86711 5.32108 1.98386 4.69273 2.2054 4.09831C2.36534 3.66422 2.62064 3.27155 2.95247 2.94922C3.27553 2.6171 3.66867 2.36131 4.10319 2.20052C4.69806 1.98061 5.32612 1.86391 5.96028 1.85547C6.88314 1.81478 7.23958 1.80176 9.10319 1.80013V1.80176ZM15.3385 3.46191C15.1009 3.46191 14.8686 3.5324 14.671 3.66446C14.4735 3.79652 14.3195 3.98421 14.2286 4.20379C14.1378 4.42337 14.1141 4.66497 14.1606 4.89802C14.207 5.13107 14.3216 5.3451 14.4898 5.51302C14.6579 5.68094 14.8721 5.79521 15.1052 5.84138C15.3383 5.88754 15.5799 5.86352 15.7993 5.77236C16.0188 5.68119 16.2063 5.52698 16.3381 5.32924C16.4699 5.13149 16.54 4.8991 16.5397 4.66146C16.5397 4.50379 16.5086 4.34768 16.4482 4.20204C16.3879 4.0564 16.2994 3.92409 16.1878 3.81268C16.0762 3.70127 15.9438 3.61294 15.7981 3.55276C15.6524 3.49257 15.4962 3.4617 15.3385 3.46191ZM10.0016 4.86491C8.986 4.86491 7.99318 5.16608 7.14872 5.73033C6.30426 6.29458 5.64608 7.09657 5.25742 8.03489C4.86876 8.9732 4.76707 10.0057 4.9652 11.0018C5.16334 11.9979 5.65241 12.9129 6.37057 13.6311C7.08872 14.3492 8.00371 14.8383 8.99982 15.0364C9.99593 15.2346 11.0284 15.1329 11.9667 14.7442C12.9051 14.3555 13.707 13.6974 14.2713 12.8529C14.8355 12.0084 15.1367 11.0156 15.1367 10C15.1363 8.63822 14.5951 7.33234 13.6322 6.36942C12.6693 5.4065 11.3634 4.86534 10.0016 4.86491V4.86491ZM10.0016 6.66667C10.6611 6.6657 11.306 6.86038 11.8549 7.22606C12.4037 7.59174 12.8317 8.112 13.0847 8.721C13.3377 9.33 13.4045 10.0004 13.2764 10.6473C13.1483 11.2942 12.8312 11.8886 12.3653 12.3553C11.8993 12.822 11.3053 13.1399 10.6586 13.2689C10.0119 13.3979 9.3414 13.3322 8.73203 13.0801C8.12266 12.8279 7.60177 12.4007 7.23528 11.8524C6.8688 11.3041 6.67318 10.6595 6.67317 10C6.6749 9.11792 7.02618 8.27248 7.65006 7.64891C8.27393 7.02533 9.11954 6.67447 10.0016 6.67318V6.66667Z" fill="black"/>
</g>
<defs>
<clipPath id="clip0_396_20">
<rect width="20" height="20" fill="white"/>
</clipPath>
</defs>
</svg>
