<svg  width="15" height="15"  viewBox="0 0 123 123" fill="none" xmlns="http://www.w3.org/2000/svg">
<g clip-path="url(#clip0_396_26)">
<path fill-rule="evenodd" clip-rule="evenodd" d="M122.864 23.3306C118.347 25.3503 113.481 26.6926 108.4 27.2908C113.605 24.1735 117.587 19.2337 119.487 13.3523C114.622 16.2296 109.214 18.34 103.484 19.4689C98.8769 14.5741 92.3332 11.5312 85.084 11.5312C71.165 11.5312 59.8955 22.8058 59.8955 36.7148C59.8955 38.6777 60.1134 40.5983 60.5398 42.4503C39.5961 41.3888 21.0284 31.3637 8.59889 16.1106C6.36924 19.9565 5.18936 24.3294 5.18936 28.7768V28.7797C5.18936 37.5131 9.62396 45.2373 16.3907 49.7418C12.2616 49.6191 8.37773 48.4677 4.96747 46.6021V46.9168C4.96747 59.1301 13.6494 69.321 25.1858 71.6245C23.0722 72.1984 20.8411 72.5153 18.5426 72.5153C16.9145 72.5153 15.3457 72.3476 13.7858 72.0642C17.0081 82.0665 26.3089 89.358 37.3233 89.5707C28.6871 96.3359 17.84 100.364 6.01502 100.364C3.9741 100.364 1.98588 100.239 0.000244141 100.002C11.1783 107.173 24.4202 111.326 38.6455 111.326C84.9911 111.326 110.357 72.9233 110.357 39.626C110.357 38.5196 110.332 37.4475 110.286 36.3635C115.208 32.8427 119.476 28.3994 122.854 23.3413L122.866 23.3299L122.863 23.3313L122.864 23.3306Z" fill="#1DA1F2"/>
</g>
<defs>
<clipPath id="clip0_396_26">
<rect width="122.88" height="122.88" fill="white"/>
</clipPath>
</defs>
</svg>
