<svg  width="15" height="15"  viewBox="0 0 123 123" fill="none" xmlns="http://www.w3.org/2000/svg">
<g clip-path="url(#clip0_396_22)">
<path fill-rule="evenodd" clip-rule="evenodd" d="M104.967 17.6419C93.4128 6.06318 78.0444 -0.304687 61.6758 -0.304687C27.9567 -0.304879 0.512448 27.1417 0.512448 60.8857C0.512448 71.6644 3.33581 82.2073 8.68531 91.4707L0 123.185L32.4401 114.672C41.3864 119.545 51.4506 122.128 61.6668 122.128H61.6917C95.4131 122.128 122.88 94.6819 122.88 60.94C122.88 44.5851 116.512 29.2257 104.958 17.6512L104.967 17.6421L104.967 17.6419ZM61.6938 111.804C52.5548 111.804 43.604 109.341 35.794 104.708L33.9322 103.596L14.6813 108.638L19.8223 89.8744L18.618 87.9468C13.4997 79.8643 10.8286 70.5099 10.8286 60.888C10.8286 32.8403 33.6444 10.0157 61.7213 10.0157C75.2982 10.0157 88.0883 15.3245 97.6833 24.9191C107.283 34.5435 112.562 47.304 112.562 60.9038C112.539 88.9717 89.7235 111.796 61.6896 111.796L61.6942 111.803L61.6938 111.804ZM89.5757 73.6983C88.0564 72.9249 80.5296 69.2375 79.1328 68.7274C77.7358 68.217 76.7174 67.954 75.6812 69.5006C74.6698 71.02 71.7285 74.4714 70.8328 75.5034C69.937 76.5172 69.0503 76.6622 67.531 75.889C66.0115 75.1156 61.0656 73.5032 55.2307 68.2919C50.693 64.2417 47.6156 59.2255 46.7197 57.7062C45.8241 56.1867 46.6199 55.3431 47.3979 54.5971C48.1008 53.9167 48.9195 52.8146 49.6906 51.9187C50.4639 51.0231 50.7043 50.3971 51.2122 49.3632C51.7225 48.3495 51.4731 47.4536 51.0899 46.6848C50.7043 45.9139 47.6383 38.3872 46.3887 35.3213C45.1619 32.3255 43.8806 32.7427 42.9395 32.6907C42.0438 32.6452 41.03 32.6452 40.0211 32.6452C39.0117 32.6452 37.3427 33.0284 35.9459 34.5523C34.5489 36.0718 30.5894 39.7863 30.5894 47.3107C30.5894 54.8373 36.0637 62.0965 36.8325 63.1329C37.6057 64.1441 47.6156 79.6034 62.9501 86.2186C66.5942 87.7855 69.4403 88.7267 71.6582 89.4545C75.3251 90.6111 78.6518 90.4433 81.2824 90.0555C84.2239 89.6223 90.3285 86.3635 91.6097 82.7919C92.8888 79.2179 92.8888 76.161 92.5056 75.5284C92.1427 74.8479 91.1313 74.4716 89.587 73.689L89.5755 73.6983H89.5757Z" fill="black"/>
</g>
<defs>
<clipPath id="clip0_396_22">
<rect width="122.88" height="122.88" fill="white"/>
</clipPath>
</defs>
</svg>
